Movies : Fantasy : HD 1080p / 1080i : English
 O.K.,This is the complete collection of the Lord of the Rings Series.
 The animated films 1977,78,and 80 are obviously not in (HD)I encoded them from original sources to keep the nastalgia and look of the times and I believe they turned out great considering the source files are over 30 yrs. old.{Please take the time to comment}The three main movies 2001,2002,2003 are all in 1080p from bluray sources,which is why I put the collection in this catagory(Thanx to the original uploaders).The two fan-film pre-quels from 2009,are downloaded from streaming sources and are in 720p,as well is the 2 min. trailer of the Dec.,2012 release of "The Hobbit_An Unexpected Journey"
 All movies are extended editions.
 All movies have english sub files include.
 Take the time to comment and
 PLEASE SEED,SEED,SEED and ENJOY!!!
 
[ The Hobbit (Animated) (1977).mp4 ]
 
Format : MPEG-4
 Format profile : Base Media
 Codec ID : isom
 File size : 982 MiB
 Duration : 1h 17mn
 Overall bit rate mode : Variable
 Overall bit rate : 1 774 Kbps
 
Video
 ID : 1
 Format : AVC
 Format/Info : Advanced Video Codec
 Format profile : High@L3.1
 Format settings, CABAC : Yes
 Format settings, ReFrames : 8 frames
 Codec ID : avc1
 Codec ID/Info : Advanced Video Coding
 Duration : 1h 17mn
 Bit rate : 1 549 Kbps
 Maximum bit rate : 7 299 Kbps
 Width : 720 pixels
 Height : 400 pixels
 Display aspect ratio : 16:9
 Frame rate mode : Constant
 Frame rate : 23.976 fps
 Color space : YUV
 Chroma subsampling : 4:2:0
 Bit depth : 8 bits
 Scan type : Progressive
 Bits/(Pixel*Frame) : 0.224
 Stream size : 858 MiB (87%)
 
Audio
 ID : 2
 Format : AAC
 Format/Info : Advanced Audio Codec
 Format profile : LC
 Codec ID : 40
 Duration : 1h 17mn
 Bit rate mode : Variable
 Nominal bit rate : 221 Kbps
 Maximum bit rate : 248 Kbps
 Channel(s) : 1 channel
 Channel positions : Front: C
 Sampling rate : 48.0 KHz
 Compression mode : Lossy
 Language : English
 Material_Duration : 4644822
 Material_StreamSize : 128072536
 
[ The Lord of the Rings (1978) (Animated).mp4 ]
 
Format : MPEG-4
 Format profile : Base Media
 Codec ID : isom
 File size : 2.57 GiB
 Duration : 2h 13mn
 Overall bit rate mode : Variable
 Overall bit rate : 2 760 Kbps
 
Video
 ID : 1
 Format : AVC
 Format/Info : Advanced Video Codec
 Format profile : High@L3.1
 Format settings, CABAC : Yes
 Format settings, ReFrames : 8 frames
 Codec ID : avc1
 Codec ID/Info : Advanced Video Coding
 Duration : 2h 13mn
 Bit rate : 2 500 Kbps
 Maximum bit rate : 7 843 Kbps
 Width : 720 pixels
 Height : 400 pixels
 Display aspect ratio : 16:9
 Frame rate mode : Constant
 Frame rate : 23.976 fps
 Color space : YUV
 Chroma subsampling : 4:2:0
 Bit depth : 8 bits
 Scan type : Progressive
 Bits/(Pixel*Frame) : 0.362
 Stream size : 2.33 GiB (91%)
 
Audio
 ID : 2
 Format : AAC
 Format/Info : Advanced Audio Codec
 Format profile : LC
 Codec ID : 40
 Duration : 2h 13mn
 Bit rate mode : Variable
 Nominal bit rate : 256 Kbps
 Maximum bit rate : 281 Kbps
 Channel(s) : 2 channels
 Channel positions : Front: L R
 Sampling rate : 48.0 KHz
 Compression mode : Lossy
 Language : English
 Material_Duration : 7991765
 Material_StreamSize : 255693788
 
[ The Return of the King (1980) (Animated).mp4 ]
 
Format : MPEG-4
 Format profile : Base Media
 Codec ID : isom
 File size : 1.85 GiB
 Duration : 1h 37mn
 Overall bit rate mode : Variable
 Overall bit rate : 2 724 Kbps
 
Video
 ID : 1
 Format : AVC
 Format/Info : Advanced Video Codec
 Format profile : High@L3.1
 Format settings, CABAC : Yes
 Format settings, ReFrames : 8 frames
 Codec ID : avc1
 Codec ID/Info : Advanced Video Coding
 Duration : 1h 37mn
 Bit rate : 2 500 Kbps
 Maximum bit rate : 7 730 Kbps
 Width : 720 pixels
 Height : 400 pixels
 Display aspect ratio : 16:9
 Frame rate mode : Constant
 Frame rate : 23.976 fps
 Color space : YUV
 Chroma subsampling : 4:2:0
 Bit depth : 8 bits
 Scan type : Progressive
 Bits/(Pixel*Frame) : 0.362
 Stream size : 1.69 GiB (92%)
 
Audio
 ID : 2
 Format : AAC
 Format/Info : Advanced Audio Codec
 Format profile : LC
 Codec ID : 40
 Duration : 1h 37mn
 Bit rate mode : Variable
 Nominal bit rate : 219 Kbps
 Maximum bit rate : 250 Kbps
 Channel(s) : 1 channel
 Channel positions : Front: C
 Sampling rate : 48.0 KHz
 Compression mode : Lossy
 Language : English
 Material_Duration : 5821398
 Material_StreamSize : 159418617
 
[ The Fellowship of the Ring (2001).mp4 ]
 
Format : MPEG-4
 Format profile : Base Media
 Codec ID : isom
 File size : 5.60 GiB
 Duration : 3h 48mn
 Overall bit rate mode : Variable
 Overall bit rate : 3 516 Kbps
 
Video
 ID : 1
 Format : AVC
 Format/Info : Advanced Video Codec
 Format profile : High@L4.0
 Format settings, CABAC : Yes
 Format settings, ReFrames : 3 frames
 Codec ID : avc1
 Codec ID/Info : Advanced Video Coding
 Duration : 3h 48mn
 Bit rate mode : Variable
 Bit rate : 3 196 Kbps
 Maximum bit rate : 25.0 Mbps
 Width : 1 920 pixels
 Height : 800 pixels
 Display aspect ratio : 2.40:1
 Frame rate mode : Constant
 Frame rate : 23.976 fps
 Color space : YUV
 Chroma subsampling : 4:2:0
 Bit depth : 8 bits
 Scan type : Progressive
 Bits/(Pixel*Frame) : 0.087
 Stream size : 5.09 GiB (91%)
 
Audio
 ID : 2
 Format : AAC
 Format/Info : Advanced Audio Codec
 Format profile : LC
 Codec ID : 40
 Duration : 3h 48mn
 Bit rate mode : Variable
 Bit rate : 317 Kbps
 Maximum bit rate : 336 Kbps
 Channel(s) : 6 channels
 Channel positions : Front: L C R, Side: L R, LFE
 Sampling rate : 48.0 KHz
 Compression mode : Lossy
 Stream size : 518 MiB (9%)
 
[ The Two Towers (2002).mp4 ]
 
Format : MPEG-4
 Format profile : Base Media
 Codec ID : isom
 File size : 5.78 GiB
 Duration : 3h 55mn
 Overall bit rate mode : Variable
 Overall bit rate : 3 516 Kbps
 
Video
 ID : 1
 Format : AVC
 Format/Info : Advanced Video Codec
 Format profile : High@L4.0
 Format settings, CABAC : Yes
 Format settings, ReFrames : 3 frames
 Codec ID : avc1
 Codec ID/Info : Advanced Video Coding
 Duration : 3h 55mn
 Bit rate mode : Variable
 Bit rate : 3 196 Kbps
 Maximum bit rate : 25.0 Mbps
 Width : 1 920 pixels
 Height : 800 pixels
 Display aspect ratio : 2.40:1
 Frame rate mode : Constant
 Frame rate : 23.976 fps
 Color space : YUV
 Chroma subsampling : 4:2:0
 Bit depth : 8 bits
 Scan type : Progressive
 Bits/(Pixel*Frame) : 0.087
 Stream size : 5.25 GiB (91%)
 
Audio
 ID : 2
 Format : AAC
 Format/Info : Advanced Audio Codec
 Format profile : LC
 Codec ID : 40
 Duration : 3h 55mn
 Bit rate mode : Variable
 Bit rate : 317 Kbps
 Maximum bit rate : 335 Kbps
 Channel(s) : 6 channels
 Channel positions : Front: L C R, Side: L R, LFE
 Sampling rate : 48.0 KHz
 Compression mode : Lossy
 Stream size : 534 MiB (9%)
 
[ The Return of the King (2003).mp4 ]
 
Format : MPEG-4
 Format profile : Base Media
 Codec ID : isom
 File size : 6.46 GiB
 Duration : 4h 23mn
 Overall bit rate mode : Variable
 Overall bit rate : 3 516 Kbps
 
Video
 ID : 1
 Format : AVC
 Format/Info : Advanced Video Codec
 Format profile : High@L4.0
 Format settings, CABAC : Yes
 Format settings, ReFrames : 3 frames
 Codec ID : avc1
 Codec ID/Info : Advanced Video Coding
 Duration : 4h 23mn
 Bit rate mode : Variable
 Bit rate : 3 196 Kbps
 Maximum bit rate : 25.0 Mbps
 Width : 1 920 pixels
 Height : 800 pixels
 Display aspect ratio : 2.40:1
 Frame rate mode : Constant
 Frame rate : 23.976 fps
 Color space : YUV
 Chroma subsampling : 4:2:0
 Bit depth : 8 bits
 Scan type : Progressive
 Bits/(Pixel*Frame) : 0.087
 Stream size : 5.87 GiB (91%)
 
Audio
 ID : 2
 Format : AAC
 Format/Info : Advanced Audio Codec
 Format profile : LC
 Codec ID : 40
 Duration : 4h 23mn
 Bit rate mode : Variable
 Bit rate : 317 Kbps
 Maximum bit rate : 335 Kbps
 Channel(s) : 6 channels
 Channel positions : Front: L C R, Side: L R, LFE
 Sampling rate : 48.0 KHz
 Compression mode : Lossy
 Stream size : 597 MiB (9%)
 
[ The Hunt For Gollum (2009).mp4 ]
 
Format : MPEG-4
 Format profile : Base Media
 Codec ID : isom
 File size : 570 MiB
 Duration : 39mn 6s
 Overall bit rate mode : Variable
 Overall bit rate : 2 039 Kbps
 
Video
 ID : 1
 Format : AVC
 Format/Info : Advanced Video Codec
 Format profile : High@L3.1
 Format settings, CABAC : Yes
 Format settings, ReFrames : 3 frames
 Format settings, GOP : M=1, N=30
 Codec ID : avc1
 Codec ID/Info : Advanced Video Coding
 Duration : 39mn 6s
 Bit rate : 1 911 Kbps
 Maximum bit rate : 7 610 Kbps
 Width : 1 280 pixels
 Height : 720 pixels
 Display aspect ratio : 16:9
 Frame rate mode : Constant
 Frame rate : 25.000 fps
 Color space : YUV
 Chroma subsampling : 4:2:0
 Bit depth : 8 bits
 Scan type : Progressive
 Bits/(Pixel*Frame) : 0.083
 Stream size : 535 MiB (94%)
 
Audio
 ID : 2
 Format : AAC
 Format/Info : Advanced Audio Codec
 Format profile : LC
 Codec ID : 40
 Duration : 39mn 6s
 Bit rate mode : Variable
 Bit rate : 126 Kbps
 Maximum bit rate : 248 Kbps
 Channel(s) : 2 channels
 Channel positions : Front: L R
 Sampling rate : 44.1 KHz
 Compression mode : Lossy
 Stream size : 35.1 MiB (6%)
 Language : English
 
[ Born Of Hope_The Ring of Barahir (2009).mp4 ]
 
Format : MPEG-4
 Format profile : Base Media
 Codec ID : isom
 File size : 1.05 GiB
 Duration : 1h 11mn
 Overall bit rate mode : Variable
 Overall bit rate : 2 107 Kbps
 
Video
 ID : 1
 Format : AVC
 Format/Info : Advanced Video Codec
 Format profile : High@L3.1
 Format settings, CABAC : Yes
 Format settings, ReFrames : 3 frames
 Format settings, GOP : M=1, N=30
 Codec ID : avc1
 Codec ID/Info : Advanced Video Coding
 Duration : 1h 11mn
 Bit rate : 1 979 Kbps
 Maximum bit rate : 5 646 Kbps
 Width : 1 280 pixels
 Height : 720 pixels
 Display aspect ratio : 16:9
 Frame rate mode : Constant
 Frame rate : 25.000 fps
 Color space : YUV
 Chroma subsampling : 4:2:0
 Bit depth : 8 bits
 Scan type : Progressive
 Bits/(Pixel*Frame) : 0.086
 Stream size : 1 011 MiB (94%)
 
Audio
 ID : 2
 Format : AAC
 Format/Info : Advanced Audio Codec
 Format profile : LC
 Codec ID : 40
 Duration : 1h 11mn
 Bit rate mode : Variable
 Bit rate : 126 Kbps
 Maximum bit rate : 310 Kbps
 Channel(s) : 2 channels
 Channel positions : Front: L R
 Sampling rate : 44.1 KHz
 Compression mode : Lossy
 Stream size : 64.1 MiB (6%)
 Language : English